<svg width="328" height="453" viewBox="0 0 328 453" fill="none" xmlns="http://www.w3.org/2000/svg">
<path d="M226.5 82.9L203.7 105L213.3 182.6L235.5 162.6L226.5 82.9ZM240.9 218.4L218.1 241.4L228.4 337.9L251.6 320.7L240.9 218.4ZM309.8 289.5L216.9 365.6L200.8 233.5L291.3 154.2L309.8 289.5ZM287.6 135.3L200.5 213.4L187.5 103.3L267.6 27.2L287.6 135.3ZM327.6 306.5L301 138.9L278.6 0.599976L211.5 64.2L0.300049 15.2L30.3 378.8L107.6 390.8L174.5 366.9L155.1 156.8L170.1 142.2L198 405.2L177.6 400.8L176 383.6L110 406.4L24.7001 394.5L17.3 404.6L279.5 452.6L267.8 373.9L317.9 330.7L315.9 316.7L327.6 306.5Z" fill="#000000"/>
</svg>
