<svg width="649" height="398" viewBox="0 0 649 398" fill="none" xmlns="http://www.w3.org/2000/svg">
<path d="M363.9 290.7C360 291.1 355.9 291.2 351.7 291.2C345.7 291.2 339.6 290.8 333.4 290.6C333.4 289.3 336.9 269.3 350.6 269.3C354.5 269.3 362.8 273.5 363.9 290.7ZM362.1 314.1C363.6 317.1 364.4 319.3 364.4 322.3C364.4 323.8 364.3 325.6 363.7 327.6C363 330.5 359.6 336.3 353 336.3C345 336.3 332.8 329.4 332.8 311.5C332.8 309.7 332.7 308 332.7 306.1C332.7 304.6 332.8 303.2 333 301.7C339.5 302.1 345.6 302.2 351.6 302.2C359.7 302.2 367.6 302 375.3 301.7C375.3 297.7 375.4 294.4 375.4 291.4C375.4 282.1 374.5 270.8 367 264.4C362 260.2 355.7 259.4 350.2 259.4C324.6 259.4 320.5 278.7 320.5 305C320.5 321.7 326.5 347.3 352.1 347.3C370.5 347.3 377.3 334.4 378 314.5C376 314.7 373.9 314.9 372.2 314.9C368.8 315 365.5 314.7 362.1 314.1ZM285.6 261.4C286.7 268 288 286.9 288 316.5C288 326.8 287.6 335.7 285.6 346.8C287.4 346.7 289.4 346.6 291.6 346.6C295.4 346.6 299.3 346.8 302.5 347.3C300.6 345.4 300.3 337.5 300.3 331.1C300.3 307.3 299.8 287.2 299.8 281.7C299.8 277.2 303.3 271.2 315.5 271.2C316.4 271.2 317.8 271.3 319.6 271.3C319.7 268 320.1 264.4 321 260.4C319.6 260.2 318.3 260 316.9 260C309.4 260 303.9 260.8 298.3 267.7C298.2 266.4 298 265 298 263.5C298 262.9 298 262.2 298.1 261.3H285.6V261.4ZM269.2 346.8C267.8 347 266.8 336.2 266.8 304.4C266.8 297.5 267.3 287.5 267.5 271.2C273.5 271.6 277.7 272.2 280.5 273C280 268.5 280 264.1 280 259.9C274 260.9 268.1 261.4 261.6 261.4C255.4 261.4 249.4 260.9 243.2 260.2C243.3 262 243.3 263.7 243.3 265.3C243.3 268.2 243.3 271.3 243 273.8C244.9 272.8 248.8 272.2 255.5 271.7C256.4 276.5 256.6 282.5 256.6 292.3C256.6 326.2 255.8 344.3 253.8 346.9C256.4 346.8 259 346.7 261.5 346.7C264.1 346.6 266.6 346.7 269.2 346.8ZM227.7 333.3C226.1 335.1 221.1 336.6 216.3 336.6C206.3 336.6 202.9 326 202.9 317C202.9 313.1 204.4 299.7 216.5 299.7C223 299.7 228.2 304.1 228.2 309.3C227.8 314.4 227.7 318.7 227.7 322.7C227.6 326.7 227.6 329.8 227.7 333.3ZM244.8 346.8C241.4 342.7 239.9 338.5 239.9 330.2C239.9 318 240.3 301.9 240.3 289C240.3 279.3 239.4 269.9 234.2 265.1C230.1 261.4 224.3 259.2 217.8 259.2C205.1 259.2 195.3 263.7 191.6 283.3C193.1 283.2 194.4 283.2 195.8 283.2C198.8 283.2 201.5 283.4 204.3 283.9C204.3 271.2 212.2 269.5 217.5 269.5C224.3 269.5 229.6 275.8 229.6 287.2C229.6 289.5 229.6 291.6 229.5 294.1C226.8 291.7 222.6 289.1 214.2 289.1C200.1 289.1 189.5 299.1 189.5 319.3C189.5 335.6 199.1 348.1 213.8 348.1C222.3 348.1 227 345.2 229 343C229.3 344.6 229.9 347.1 230.6 348.3C235.7 347.1 239.6 346.8 244.8 346.8ZM168.3 290.7C164.4 291.1 160.3 291.2 156.1 291.2C150.1 291.2 144 290.8 137.8 290.6C137.8 289.3 141.3 269.3 155 269.3C158.9 269.3 167.2 273.5 168.3 290.7ZM166.5 314.1C168 317.1 168.8 319.3 168.8 322.3C168.8 323.8 168.7 325.6 168.1 327.6C167.4 330.5 164 336.3 157.4 336.3C149.4 336.3 137.2 329.4 137.2 311.5C137.2 309.7 137.1 308 137.1 306.1C137.1 304.6 137.2 303.2 137.4 301.7C143.9 302.1 150 302.2 156 302.2C164.1 302.2 172 302 179.7 301.7C179.7 297.7 179.8 294.4 179.8 291.4C179.8 282.1 178.9 270.8 171.4 264.4C166.4 260.2 160.1 259.4 154.6 259.4C129 259.4 124.9 278.7 124.9 305C124.9 321.7 130.9 347.3 156.5 347.3C174.9 347.3 181.7 334.4 182.4 314.5C180.4 314.7 178.3 314.9 176.6 314.9C173.2 315 169.9 314.7 166.5 314.1ZM116.4 346.8C115.2 341.8 115 332.9 115 324.8C115 285.7 116.4 263.9 118 261C115.4 261.2 113 261.4 110.4 261.4C107.8 261.4 105.2 261.3 102.8 261C103.6 268.5 103.6 275.6 103.6 282.5C103.6 286.6 103.1 290.5 103.1 296.9C98.5 297.3 93.9 297.5 89 297.5C85.6 297.5 82.1 297.4 78.4 297.1C78.4 273.8 78.7 265.8 79.3 260.8C76.7 260.9 74.1 261 71.7 261C69.5 261 67.5 260.9 65.2 260.8C65.7 264.5 66.1 299.5 66.1 322.7C66.1 334.3 65.7 341.8 63.7 347.1C66.7 347 69.5 346.9 72.5 346.9C74.8 346.9 77.1 347 79.4 347.1C78.7 345.3 78.5 333 78.5 308.2C83.8 307.8 88.9 307.6 94 307.6C96.8 307.6 99.8 307.7 102.7 307.8C102.6 332.5 101.9 343.3 100.7 346.7C103.4 346.5 106 346.3 108.7 346.3C111.2 346.5 113.8 346.6 116.4 346.8ZM47.3 346.8C45.9 347 44.9 336.2 44.9 304.4C44.9 297.5 45.4 287.5 45.6 271.2C51.6 271.6 55.8 272.2 58.6 273C58.1 268.5 58.1 264.1 58.1 259.9C52.1 260.9 46.2 261.4 39.7 261.4C33.5 261.4 27.5 260.9 21.3 260.2C21.4 262 21.4 263.7 21.4 265.3C21.4 268.2 21.4 271.3 21.1 273.8C23 272.8 26.9 272.2 33.6 271.7C34.5 276.5 34.7 282.5 34.7 292.3C34.7 326.2 33.9 344.3 31.9 346.9C34.5 346.8 37.1 346.7 39.6 346.7C42.2 346.6 44.8 346.7 47.3 346.8Z" fill="#94070A"/>
<path d="M354.8 242.4C354.8 237.6 357.6 221.6 364.2 194.7C369.8 171.8 373.9 156.1 378.7 143C373.4 143 366.6 142.9 361 142C357.9 174.6 351.9 195.6 348.8 208.6C346.3 186.1 342.1 172.1 341.1 142C339 142.3 336.9 142.4 334.8 142.4C331 142.4 327.2 142 323.6 141.3C321.8 168.3 318.5 191.6 313.5 216.1C312.8 197.4 309.6 174.4 307.3 139.3C303.4 140.1 299.4 140.6 295.5 140.6C294.1 140.6 292.7 140.6 291.4 140.5C295.1 150 297.2 159.5 299.5 182.5C301.7 205.5 303.2 225 304.7 242.2C309.6 240.8 314.7 240.2 319.4 240.2C322.2 229.4 328.2 194.3 332 161.4C337.1 216.6 339.9 220.9 339.9 242C342 241.9 344.1 241.9 346.4 241.9C349.1 241.9 351.9 242 354.8 242.4ZM261.8 243.4C275.1 243.4 292.6 235 292.6 191.6C292.6 152 280 139.2 261.8 139.2C248.7 139.2 231.3 143.4 231.3 195.8C231.3 234.1 247.6 243.4 261.8 243.4ZM261.8 230.1C254.6 230.1 245.4 224.1 245.4 187.4C245.4 155.2 257.3 152.2 261.8 152.2C270.2 152.2 278.5 154.4 278.5 191.7C278.5 221.5 268.8 230.1 261.8 230.1ZM188.6 230.3C188.6 214.7 188.3 201.7 186.5 155C189.2 154.6 190.7 154.3 192.4 154.3C215 154.3 217 176.8 217 190.1C217 215.5 205.1 230.7 191.7 230.7C190.3 230.8 189.3 230.6 188.6 230.3ZM173.2 141.9C174.6 168 175.3 192.9 175.3 217.6C175.3 225.5 175.3 233.3 175.2 241.2C179.8 241.3 185.5 241.5 189.8 241.5C209.3 241.5 228.8 230.1 228.8 195.3C228.8 161 221.5 141.9 186.1 141.9H173.2ZM154 242.7C158.1 242 162 241.9 165.8 241.7C165.2 235.4 165.1 226.4 165.1 216.6C165.1 186.8 167.2 147.9 169.6 141.6C167.5 141.7 165.2 141.9 163.1 141.9C160 141.9 156.9 141.8 154.1 141.5C154.8 152.2 155.1 162.7 155.1 173.2C155.1 183.6 155 194 155 204.4C148.8 195.4 138.7 166.1 131.6 141.8C128.9 142.1 126.3 142.1 123.6 142.1C120.8 142.1 118.1 142.1 115.3 141.8C115.6 156.4 115.9 170.6 115.9 184.3C115.9 204.2 115.2 223.3 113 242.3C115.1 242.2 117.2 242 119.3 242C121.5 242 123.7 242.1 125.8 242.3C125.5 232.3 125.4 221 125.4 209.7C125.4 193.7 125.7 178 126.4 166.7C132.2 180.5 147.8 219.8 154 242.7ZM109.9 241.2C107.9 238.1 106.8 223.6 106.8 205.3C106.8 168.1 107.9 151.2 109.3 142C105.9 142.3 102.6 142.4 99.2 142.4C96.5 142.4 93.7 142.3 90.9 142C93 151.4 93.8 165.7 93.8 191.1C93.8 215.8 92.8 233.1 90.3 241.2C93.5 240.9 96.9 240.8 100.1 240.8C103.3 240.8 106.6 240.9 109.9 241.2ZM63.8 242.4C63.8 237.6 66.6 221.6 73.2 194.7C78.8 171.8 82.9 156.1 87.7 143C82.4 143 75.6 142.9 70 142C66.9 174.6 60.9 195.6 57.8 208.6C55.3 186.1 51.1 172.1 50.1 142C48 142.3 45.9 142.4 43.8 142.4C40 142.4 36.2 142 32.6 141.3C30.8 168.3 27.5 191.6 22.5 216.1C21.8 197.4 18.6 174.4 16.3 139.3C12.4 140.1 8.4 140.6 4.5 140.6C3.1 140.6 1.70002 140.6 0.400024 140.5C4.10002 150 6.2 159.5 8.5 182.5C10.7 205.5 12.2 225 13.7 242.2C18.6 240.8 23.7 240.2 28.4 240.2C31.2 229.4 37.2 194.3 41 161.4C46.1 216.6 48.9 220.9 48.9 242C51 241.9 53.1 241.9 55.4 241.9C58.2 241.9 61 242 63.8 242.4Z" fill="#94070A"/>
<path d="M329.6 127.9C334.4 127.1 338.9 127 343.4 126.8C342.7 119.9 342.6 110.1 342.6 99.3C342.6 66.7 345.1 24.2 347.8 17.3C345.3 17.5 342.7 17.6 340.3 17.6C336.7 17.6 333.1 17.4 329.8 17.1C330.6 28.8 330.9 40.3 330.9 51.8C330.9 63.2 330.7 74.5 330.7 85.9C323.5 76.1 311.7 44 303.3 17.4C300.2 17.7 297.1 17.7 294 17.7C290.7 17.7 287.6 17.7 284.3 17.4C284.6 33.4 285 48.9 285 63.9C285 85.7 284.2 106.6 281.6 127.3C284.1 127.1 286.5 127 289 127C291.6 127 294.1 127.2 296.5 127.3C296.2 116.4 296 104 296 91.7C296 74.2 296.3 57 297.1 44.7C304.2 59.9 322.4 102.9 329.6 127.9ZM261.6 55C256.8 55.5 251.9 55.6 246.9 55.6C239.7 55.6 232.3 55.1 224.8 54.8C224.8 53.1 229.1 27.8 245.6 27.8C250.3 27.8 260.3 33 261.6 55ZM259.5 84.6C261.3 88.4 262.3 91.2 262.3 95C262.3 96.8 262.1 99.1 261.5 101.8C260.7 105.5 256.6 112.9 248.6 112.9C238.9 112.9 224.2 104.1 224.2 81.4C224.2 79.1 224 76.9 224 74.5C224 72.7 224.2 70.8 224.3 69C232.2 69.5 239.5 69.6 246.7 69.6C256.5 69.6 266 69.3 275.4 69C275.4 63.9 275.6 59.8 275.6 55.9C275.6 44.1 274.5 29.8 265.4 21.7C259.3 16.3 251.8 15.4 245.1 15.4C214.1 15.4 209.2 40 209.2 73.3C209.2 94.5 216.4 127.1 247.4 127.1C269.7 127.1 277.9 110.7 278.7 85.5C276.2 85.8 273.8 86 271.7 86C267.5 85.8 263.6 85.4 259.5 84.6ZM166.6 74.3C167.4 59.2 167.4 38.1 167.7 30.5C169.5 30.3 170.8 30.2 173.4 30.2C186.8 30.2 191.1 35.9 191.1 44.8C191.1 59.2 191.1 67.1 186 70.6C181.2 74 171.5 74.3 166.6 74.3ZM150.5 16.3C152 24.4 152.6 37.6 152.6 53.3C152.6 91.7 149.7 118.4 145.7 126.7C151.9 126.2 158.8 126.2 165.5 126.2C164.7 125.3 164 122.8 164 118.2C164 111.3 164.7 101.5 166 88.9C174.4 88.1 185 88.3 194.3 80.8C201.8 74.7 206.4 64.4 206.4 48.5C206.4 18.2 187.9 16.2 154.3 16.2H150.5V16.3ZM107.8 128.7C123.4 128.7 143.7 119.5 143.7 72C143.7 28.7 129 14.7 107.8 14.7C92.5999 14.7 72.2 19.3 72.2 76.6C72.2 118.5 91.1999 128.7 107.8 128.7ZM107.8 114.1C99.3999 114.1 88.5999 107.5 88.5999 67.4C88.5999 32.2 102.5 28.9 107.8 28.9C117.6 28.9 127.3 31.4 127.3 72.1C127.3 104.7 116 114.1 107.8 114.1Z" fill="#94070A"/>
<path d="M559.7 72.6L539.7 92L548.1 160.1L567.6 142.5L559.7 72.6ZM572.3 191.6L552.3 211.8L561.4 296.5L581.8 281.4L572.3 191.6ZM632.8 254L551.3 320.8L537.2 204.8L616.7 135.2L632.8 254ZM613.3 118.7L536.9 187.2L525.5 90.5L595.8 23.7L613.3 118.7ZM648.4 268.9L625 121.8L605.3 0.400024L546.4 56.3L361 13.2L387.3 332.4L455.2 342.9L513.9 321.9L496.9 137.5L510.1 124.6L534.6 355.5L516.7 351.6L515.3 336.5L457.3 356.5L382.4 346L375.9 354.9L606.1 397.1L595.8 328L639.8 290.1L638 277.8L648.4 268.9Z" fill="#94070A"/>
</svg>
