<svg width="641" height="105" viewBox="0 0 641 105" fill="none" xmlns="http://www.w3.org/2000/svg">
<path d="M631.6 45.9C629.3 46.1 626.8 46.2 624.3 46.2C620.7 46.2 617.1 46 613.4 45.8C613.4 45 615.5 33.1 623.6 33.1C626.1 33.2 631 35.6 631.6 45.9ZM630.6 59.8C631.5 61.6 632 62.9 632 64.7C632 65.6 631.9 66.6 631.6 67.9C631.2 69.6 629.2 73.1 625.2 73.1C620.4 73.1 613.2 69 613.2 58.4C613.2 57.3 613.1 56.3 613.1 55.2C613.1 54.3 613.2 53.5 613.3 52.6C617.2 52.8 620.8 52.9 624.4 52.9C629.2 52.9 633.9 52.8 638.5 52.6C638.5 50.2 638.6 48.3 638.6 46.5C638.6 41 638 34.3 633.6 30.5C630.6 28 626.9 27.6 623.6 27.6C608.3 27.6 605.9 39.1 605.9 54.7C605.9 64.6 609.5 79.9 624.7 79.9C635.7 79.9 639.7 72.2 640.1 60.4C638.9 60.5 637.7 60.6 636.6 60.6C634.5 60.4 632.6 60.2 630.6 59.8ZM585.1 28.5C585.7 32.5 586.6 43.7 586.6 61.3C586.6 67.4 586.4 72.7 585.1 79.4C586.1 79.3 587.4 79.3 588.7 79.3C591 79.3 593.3 79.4 595.2 79.7C594.1 78.5 593.9 73.9 593.9 70.1C593.9 55.9 593.6 44 593.6 40.7C593.6 38 595.7 34.4 603 34.4C603.6 34.4 604.4 34.5 605.4 34.5C605.5 32.6 605.7 30.4 606.2 28C605.4 27.9 604.6 27.8 603.8 27.8C599.4 27.8 596.1 28.3 592.7 32.4C592.6 31.6 592.5 30.8 592.5 29.9C592.5 29.5 592.5 29.1 592.6 28.6H585.1V28.5ZM575.3 79.3C574.5 79.4 573.8 73 573.8 54C573.8 49.9 574.1 43.9 574.2 34.2C577.8 34.4 580.3 34.8 581.9 35.3C581.6 32.6 581.6 30 581.6 27.5C578 28.1 574.5 28.4 570.6 28.4C566.9 28.4 563.3 28.1 559.6 27.7C559.7 28.8 559.7 29.8 559.7 30.7C559.7 32.4 559.7 34.3 559.5 35.7C560.6 35.1 563 34.8 566.9 34.5C567.5 37.4 567.5 40.9 567.5 46.7C567.5 66.8 567 77.6 565.8 79.2C567.3 79.1 568.9 79.1 570.4 79.1C572.2 79.2 573.8 79.2 575.3 79.3ZM550.6 71.3C549.6 72.4 546.6 73.2 543.8 73.2C537.8 73.2 535.8 66.9 535.8 61.5C535.8 59.2 536.7 51.2 543.9 51.2C547.8 51.2 550.8 53.8 550.8 56.9C550.6 59.9 550.5 62.5 550.5 64.9C550.5 67.3 550.5 69.2 550.6 71.3ZM560.8 79.3C558.8 76.9 557.9 74.3 557.9 69.4C557.9 62.1 558.1 52.6 558.1 44.9C558.1 39.1 557.5 33.5 554.5 30.7C552.1 28.5 548.6 27.2 544.7 27.2C537.1 27.2 531.3 29.9 529.1 41.5C530 41.4 530.8 41.4 531.6 41.4C533.4 41.4 535 41.5 536.7 41.8C536.7 34.2 541.4 33.2 544.5 33.2C548.5 33.2 551.7 36.9 551.7 43.7C551.7 45.1 551.7 46.3 551.6 47.8C550 46.4 547.5 44.9 542.5 44.9C534.1 44.9 527.8 50.9 527.8 62.9C527.8 72.6 533.5 80 542.2 80C547.3 80 550 78.3 551.2 77C551.4 77.9 551.8 79.4 552.2 80.2C555.4 79.5 557.7 79.3 560.8 79.3ZM515.3 45.9C513 46.1 510.5 46.2 508 46.2C504.4 46.2 500.8 46 497.1 45.8C497.1 45 499.2 33.1 507.3 33.1C509.7 33.2 514.6 35.6 515.3 45.9ZM514.2 59.8C515.1 61.6 515.6 62.9 515.6 64.7C515.6 65.6 515.5 66.6 515.2 67.9C514.8 69.6 512.8 73.1 508.8 73.1C504 73.1 496.8 69 496.8 58.4C496.8 57.3 496.7 56.3 496.7 55.2C496.7 54.3 496.8 53.5 496.9 52.6C500.8 52.8 504.4 52.9 508 52.9C512.8 52.9 517.5 52.8 522.1 52.6C522.1 50.2 522.2 48.3 522.2 46.5C522.2 41 521.6 34.3 517.2 30.5C514.2 28 510.5 27.6 507.2 27.6C491.9 27.6 489.5 39.1 489.5 54.7C489.5 64.6 493.1 79.9 508.3 79.9C519.3 79.9 523.3 72.2 523.7 60.4C522.5 60.5 521.3 60.6 520.2 60.6C518.2 60.4 516.2 60.2 514.2 59.8ZM484.3 79.3C483.6 76.4 483.5 71 483.5 66.2C483.5 43 484.3 29.9 485.3 28.2C483.8 28.3 482.3 28.4 480.8 28.4C479.3 28.4 477.7 28.3 476.3 28.2C476.8 32.7 476.8 36.9 476.8 41C476.8 43.4 476.5 45.7 476.5 49.6C473.8 49.8 471 50 468.1 50C466.1 50 464 49.9 461.8 49.8C461.8 35.9 462 31.2 462.4 28.2C460.9 28.3 459.3 28.3 457.9 28.3C456.6 28.3 455.4 28.2 454 28.2C454.3 30.4 454.6 51.2 454.6 65C454.6 71.9 454.4 76.4 453.1 79.5C454.9 79.4 456.6 79.4 458.3 79.4C459.7 79.4 461 79.5 462.4 79.5C462 78.4 461.8 71.1 461.8 56.3C464.9 56.1 468 55.9 471 55.9C472.7 55.9 474.5 56 476.2 56C476.1 70.7 475.7 77.1 475 79.2C476.6 79.1 478.1 79 479.8 79C481.3 79.1 482.8 79.2 484.3 79.3ZM443.3 79.3C442.5 79.4 441.8 73 441.8 54C441.8 49.9 442.1 43.9 442.2 34.2C445.8 34.4 448.3 34.8 449.9 35.3C449.6 32.6 449.6 30 449.6 27.5C446 28.1 442.5 28.4 438.6 28.4C434.9 28.4 431.3 28.1 427.6 27.7C427.7 28.8 427.7 29.8 427.7 30.7C427.7 32.4 427.7 34.3 427.5 35.7C428.6 35.1 431 34.8 434.9 34.5C435.5 37.4 435.5 40.9 435.5 46.7C435.5 66.8 435 77.6 433.8 79.2C435.3 79.1 436.9 79.1 438.4 79.1C440.2 79.2 441.7 79.2 443.3 79.3Z" fill="#94070A"/>
<path d="M404.4 78.7C404.4 76.3 405.8 68 409.2 54.2C412.1 42.5 414.2 34.4 416.6 27.7C413.9 27.7 410.4 27.6 407.5 27.2C405.9 43.9 402.8 54.7 401.2 61.3C399.9 49.8 397.7 42.6 397.2 27.2C396.1 27.3 395 27.4 394 27.4C392.1 27.4 390.1 27.2 388.2 26.8C387.3 40.6 385.6 52.6 383 65.2C382.6 55.6 381 43.8 379.8 25.8C377.8 26.2 375.8 26.4 373.8 26.4C373.1 26.4 372.4 26.4 371.7 26.3C373.6 31.2 374.7 36 375.9 47.8C377.1 59.6 377.8 69.6 378.6 78.4C381.1 77.7 383.7 77.4 386.2 77.4C387.6 71.9 390.7 53.9 392.7 37C395.3 65.3 396.7 67.5 396.7 78.3C397.8 78.2 398.9 78.2 400 78.2C401.6 78.4 403 78.4 404.4 78.7ZM356.8 79.2C363.6 79.2 372.6 74.9 372.6 52.6C372.6 32.3 366.1 25.8 356.8 25.8C350.1 25.8 341.2 28 341.2 54.8C341.2 74.4 349.5 79.2 356.8 79.2ZM356.8 72.3C353.1 72.3 348.4 69.2 348.4 50.4C348.4 33.9 354.5 32.3 356.8 32.3C361.1 32.3 365.4 33.5 365.4 52.5C365.4 67.9 360.4 72.3 356.8 72.3ZM319.3 72.5C319.3 64.5 319.2 57.8 318.2 33.9C319.6 33.7 320.4 33.5 321.2 33.5C332.8 33.5 333.8 45 333.8 51.9C333.8 64.9 327.7 72.7 320.8 72.7C320.2 72.7 319.7 72.6 319.3 72.5ZM311.4 27.1C312.1 40.5 312.5 53.2 312.5 65.9C312.5 69.9 312.5 74 312.4 78C314.8 78.1 317.7 78.1 319.9 78.1C329.9 78.1 339.9 72.3 339.9 54.4C339.9 36.8 336.2 27.1 318 27.1H311.4ZM301.5 78.8C303.6 78.4 305.6 78.4 307.5 78.3C307.2 75.1 307.1 70.5 307.1 65.4C307.1 50.1 308.2 30.2 309.4 27C308.3 27.1 307.2 27.1 306.1 27.1C304.5 27.1 302.9 27 301.5 26.9C301.9 32.4 302 37.8 302 43.2C302 48.5 301.9 53.9 301.9 59.2C298.7 54.6 293.6 39.6 289.9 27.1C288.5 27.2 287.2 27.2 285.8 27.2C284.4 27.2 283 27.2 281.6 27.1C281.7 34.6 281.9 41.9 281.9 48.9C281.9 59.1 281.5 68.9 280.4 78.6C281.5 78.5 282.6 78.5 283.6 78.5C284.8 78.5 285.8 78.6 286.9 78.6C286.8 73.5 286.7 67.7 286.7 61.9C286.7 53.7 286.8 45.6 287.2 39.9C290.4 46.9 298.4 67.1 301.5 78.8ZM278.9 78C277.9 76.4 277.3 69 277.3 59.6C277.3 40.5 277.9 31.9 278.6 27.1C276.9 27.2 275.1 27.3 273.4 27.3C272 27.3 270.6 27.2 269.2 27.1C270.3 31.9 270.7 39.3 270.7 52.3C270.7 65 270.2 73.8 268.9 78C270.6 77.9 272.3 77.8 273.9 77.8C275.5 77.8 277.3 77.9 278.9 78ZM255.3 78.7C255.3 76.3 256.7 68 260.1 54.2C263 42.5 265.1 34.4 267.5 27.7C264.8 27.7 261.3 27.6 258.4 27.2C256.8 43.9 253.7 54.7 252.1 61.3C250.8 49.8 248.6 42.6 248.1 27.2C247 27.3 245.9 27.4 244.9 27.4C243 27.4 241 27.2 239.1 26.8C238.2 40.6 236.5 52.6 233.9 65.2C233.5 55.6 231.9 43.8 230.7 25.8C228.7 26.2 226.7 26.4 224.7 26.4C224 26.4 223.3 26.4 222.6 26.3C224.5 31.2 225.6 36 226.8 47.8C228 59.6 228.7 69.6 229.5 78.4C232 77.7 234.6 77.4 237.1 77.4C238.5 71.9 241.6 53.9 243.6 37C246.2 65.3 247.6 67.5 247.6 78.3C248.7 78.2 249.8 78.2 250.9 78.2C252.5 78.4 253.9 78.4 255.3 78.7Z" fill="#94070A"/>
<path d="M201.3 77.8C203.4 77.5 205.5 77.4 207.5 77.3C207.2 74.2 207.1 69.8 207.1 65C207.1 50.4 208.2 31.4 209.4 28.3C208.3 28.4 207.1 28.4 206 28.4C204.4 28.4 202.8 28.3 201.3 28.2C201.7 33.4 201.8 38.6 201.8 43.7C201.8 48.8 201.7 53.9 201.7 59C198.5 54.6 193.2 40.2 189.4 28.3C188 28.4 186.6 28.4 185.2 28.4C183.7 28.4 182.3 28.4 180.9 28.3C181 35.5 181.2 42.4 181.2 49.1C181.2 58.9 180.8 68.2 179.7 77.5C180.8 77.4 181.9 77.4 183 77.4C184.2 77.4 185.3 77.5 186.4 77.5C186.3 72.6 186.2 67 186.2 61.5C186.2 53.7 186.3 46 186.7 40.5C190 47.3 198.1 66.6 201.3 77.8ZM170.9 45.1C168.8 45.3 166.6 45.4 164.3 45.4C161.1 45.4 157.8 45.2 154.4 45.1C154.4 44.3 156.3 33 163.7 33C165.8 33 170.3 35.3 170.9 45.1ZM169.9 58.4C170.7 60.1 171.1 61.4 171.1 63.1C171.1 63.9 171 65 170.7 66.1C170.3 67.8 168.5 71.1 164.9 71.1C160.6 71.1 154 67.2 154 57C154 56 153.9 55 153.9 53.9C153.9 53.1 154 52.2 154 51.4C157.5 51.6 160.8 51.7 164.1 51.7C168.5 51.7 172.8 51.6 176.9 51.4C176.9 49.1 177 47.3 177 45.6C177 40.3 176.5 33.9 172.5 30.3C169.8 27.9 166.4 27.5 163.4 27.5C149.5 27.5 147.3 38.5 147.3 53.4C147.3 62.9 150.5 77.5 164.4 77.5C174.4 77.5 178 70.1 178.4 58.9C177.3 59 176.2 59.1 175.2 59.1C173.5 59 171.8 58.8 169.9 58.4ZM128.3 53.8C128.7 47.1 128.7 37.6 128.8 34.2C129.6 34.1 130.2 34.1 131.4 34.1C137.4 34.1 139.3 36.6 139.3 40.6C139.3 47.1 139.3 50.6 137 52.2C134.9 53.7 130.5 53.8 128.3 53.8ZM121.1 27.8C121.8 31.4 122.1 37.4 122.1 44.4C122.1 61.6 120.8 73.6 119 77.3C121.8 77.1 124.9 77.1 127.9 77.1C127.5 76.7 127.2 75.6 127.2 73.5C127.2 70.4 127.5 66 128.1 60.4C131.8 60.1 136.6 60.1 140.8 56.8C144.2 54 146.2 49.4 146.2 42.4C146.2 28.9 137.9 28 122.9 28H121.1V27.8ZM102 78.1C109 78.1 118.1 74 118.1 52.7C118.1 33.3 111.5 27.1 102 27.1C95.2 27.1 86.1 29.2 86.1 54.8C86.1 73.6 94.6 78.1 102 78.1ZM102 71.6C98.3 71.6 93.4 68.6 93.4 50.7C93.4 35 99.6 33.4 102 33.4C106.4 33.4 110.7 34.5 110.7 52.7C110.7 67.4 105.7 71.6 102 71.6Z" fill="#94070A"/>
<path d="M53 19.4L47.7 24.5L49.9 42.5L55 37.9L53 19.4ZM56.4 50.8L51.1 56.1L53.5 78.4L58.9 74.4L56.4 50.8ZM72.3 67.2L50.8 84.8L47.1 54.2L68.1 35.8L72.3 67.2ZM67.2 31.5L47 49.6L44 24.1L62.5 6.50003L67.2 31.5ZM76.5 71.2L70.3 32.4L65.1 0.400024L49.6 15.1L0.699951 3.70003L7.59998 87.9L25.5 90.7L41 85.2L36.5 36.6L40 33.2L46.5 94.1L41.8 93.1L41.4 89.1L26.1 94.4L6.30005 91.6L4.59998 93.9L65.3 105L62.6 86.8L74.2 76.8L73.7 73.6L76.5 71.2Z" fill="#94070A"/>
</svg>
